<?xml version="1.0" encoding="utf-8"?>
<!-- Generator: Adobe Illustrator 18.1.0, SVG Export Plug-In . SVG Version: 6.00 Build 0)  -->
<svg version="1.1" id="Layer_1" xmlns="http://www.w3.org/2000/svg" xmlns:xlink="http://www.w3.org/1999/xlink" x="0px" y="0px"
	 viewBox="0 0 199.5 285.4" enable-background="new 0 0 199.5 285.4" xml:space="preserve">
<g>
	<path fill="#1F4D5B" d="M108.2,101.3v35.6h38V58.6C125.2,61.2,108.3,79.7,108.2,101.3z"/>
	<rect x="108.2" y="147.1" fill="#1F4D5B" width="38" height="55.4"/>
	<path fill="#1F4D5B" d="M188.5,0H11C4.9,0,0,4.9,0,11v180.6c0,6.1,4.9,11,11,11h86.9V101.3v0c0-14.1,5.6-27.4,15.8-37.5
		C123.8,53.6,137.2,48,151.3,48h0h48.2V11C199.5,4.9,194.6,0,188.5,0z"/>
	<path fill="#1F4D5B" d="M156.4,117.2h31v10.2h-31v65h43c0-0.3,0-0.6,0-0.9V58.2h-43.1V117.2z"/>
</g>
<polygon fill="#1F4D5B" points="24.8,210 24.8,263.2 7,210 0,210 0,284.3 7,284.3 7,231 24.8,284.3 31.8,284.3 31.8,210 "/>
<polygon fill="#1F4D5B" points="70.8,284.3 58.4,210 51.5,210 39.1,284.3 46,284.3 54.9,230.9 63.7,284.3 "/>
<g id="POLYLINE_8_">
	<polygon fill="#1F4D5B" points="92.2,284.3 90.7,284.2 89.3,284 87.9,283.7 86.6,283.2 85.3,282.7 84.1,282 83,281.3 81.9,280.4 
		80.9,279.5 79.9,278.5 79.1,277.3 78.4,276.2 77.7,274.9 77.2,273.7 76.8,272.3 76.5,271 76.4,269.6 76.3,268.4 76.3,210 83.3,210 
		83.3,268.3 83.4,269.1 83.5,269.9 83.6,270.7 83.9,271.4 84.2,272.1 84.5,272.8 84.9,273.5 85.4,274.1 85.9,274.6 86.5,275.2 
		87.1,275.6 87.8,276 88.5,276.4 89.2,276.7 89.9,276.9 90.7,277.1 91.4,277.2 92.2,277.2 93,277.2 93.7,277.1 94.5,276.9 
		95.2,276.7 95.9,276.4 96.6,276 97.3,275.6 97.9,275.2 98.5,274.6 99,274.1 99.5,273.5 99.9,272.8 100.2,272.1 100.5,271.4 
		100.8,270.7 100.9,269.9 101,269.1 101.1,268.3 101,210 108,210 108.1,268.4 108,269.9 107.8,271.3 107.5,272.6 107.1,273.9 
		106.5,275.2 105.9,276.4 105.1,277.6 104.3,278.7 103.3,279.7 102.3,280.6 101.2,281.5 100,282.2 98.8,282.8 97.5,283.3 
		96.2,283.7 94.8,284 93.4,284.2 	"/>
</g>
<g id="LINE_26_">
	<polygon fill="#1F4D5B" points="134,284.3 126.6,284.3 126.6,217 114.5,217 114.5,210 146.1,210 146.1,217 134,217 	"/>
</g>
<rect x="156.1" y="210" fill="#1F4D5B" width="7.1" height="74.3"/>
<polygon fill="#1F4D5B" points="199.5,284.3 188.1,284.3 187.5,284.2 186.8,284.2 186.2,284.1 185.6,284 185,283.9 184.4,283.7 
	183.7,283.6 183.1,283.4 182.6,283.1 182,282.9 181.4,282.6 180.9,282.3 180.3,281.9 179.8,281.6 179.3,281.2 178.8,280.8 
	178.3,280.4 177.9,280 177.4,279.5 177,279 176.6,278.5 176.3,278 175.9,277.5 175.6,276.9 175.3,276.4 175,275.8 174.7,275.2 
	174.5,274.6 174.3,274 174.1,273.4 174,272.8 173.9,272.2 173.8,271.6 173.7,270.9 173.7,270.3 173.7,269.7 173.7,224.4 
	173.7,223.8 173.7,223.2 173.8,222.5 173.9,221.9 174,221.3 174.2,220.7 174.4,220.1 174.6,219.5 174.8,218.9 175.1,218.3 
	175.3,217.7 175.6,217.2 176,216.6 176.3,216.1 176.7,215.6 177.1,215.1 177.5,214.6 178,214.2 178.4,213.8 178.9,213.3 
	179.4,212.9 179.9,212.6 180.4,212.2 181,211.9 181.5,211.6 182.1,211.3 182.7,211.1 183.3,210.8 183.9,210.6 184.5,210.5 
	185.1,210.3 185.7,210.2 186.4,210.1 187,210 187.6,210 188.2,210 199.5,210 199.5,216.4 187.8,216.4 187.1,216.5 186.4,216.6 
	185.7,216.8 185.1,217 184.4,217.3 183.8,217.7 183.2,218.1 182.7,218.5 182.2,219 181.7,219.6 181.3,220.2 181,220.8 180.7,221.4 
	180.4,222.1 180.3,222.8 180.1,223.4 180.1,223.8 180.1,224.2 180.1,224.5 180.1,269.7 180.1,270.4 180.2,271.1 180.4,271.8 
	180.6,272.5 180.8,273.2 181.2,273.8 181.5,274.4 182,274.9 182.4,275.5 183,275.9 183.5,276.4 184.1,276.8 184.8,277.1 
	185.4,277.4 186.1,277.6 186.8,277.7 187.5,277.8 187.8,277.8 188.2,277.8 199.5,277.8 "/>
</svg>
